<svg xmlns="http://www.w3.org/2000/svg" width="36" height="40" viewBox="0 0 36 40">
  <defs>
    <style>
      .cls-1 {
        fill: #fff;
        fill-rule: evenodd;
      }
    </style>
  </defs>
  <path id="Icon_" data-name="Icon " class="cls-1" d="M18.388,5.444A0.4,0.4,0,0,1,18.1,4.761L21.74,1.113a0.4,0.4,0,1,1,.565.567L18.668,5.326a0.4,0.4,0,0,1-.28.118h0Zm0-2.265A0.407,0.407,0,0,1,18.1,3.065a0.4,0.4,0,0,1,0-.566l2.074-2.082a0.4,0.4,0,0,1,.565.566L18.668,3.065a0.392,0.392,0,0,1-.28.115h0Zm2.806,3.976A0.4,0.4,0,0,1,20.91,7.04a0.4,0.4,0,0,1,0-.566l3.907-3.917a0.4,0.4,0,0,1,.564.566L21.475,7.04a0.4,0.4,0,0,1-.281.115h0Zm-1.718-.541a0.4,0.4,0,0,1-.284-0.684l4.176-4.183a0.4,0.4,0,1,1,.565.566L19.757,6.5a0.385,0.385,0,0,1-.281.118h0ZM23.6,9.242a0.4,0.4,0,0,1-.281-0.682l3.858-3.871a0.406,0.406,0,0,1,.564,0,0.4,0.4,0,0,1,0,.566l-3.858,3.87a0.4,0.4,0,0,1-.284.117h0ZM22.466,8.118A0.407,0.407,0,0,1,22.185,8a0.4,0.4,0,0,1,0-.566l3.9-3.911a0.4,0.4,0,1,1,.564.565L22.75,8a0.414,0.414,0,0,1-.284.115h0Zm2.542,4.267a0.4,0.4,0,0,1-.284-0.681l4.257-4.267A0.4,0.4,0,1,1,29.545,8l-4.257,4.268a0.4,0.4,0,0,1-.28.115h0Zm-0.525-1.739a0.39,0.39,0,0,1-.28-0.117,0.4,0.4,0,0,1,0-.563l3.967-3.98a0.4,0.4,0,0,1,.564.566L24.768,10.53a0.4,0.4,0,0,1-.284.117h0Zm0.664,3.862a0.4,0.4,0,0,1-.28-0.685l4.843-4.855a0.4,0.4,0,0,1,.564.566l-4.843,4.855a0.4,0.4,0,0,1-.284.12h0Zm-7.578,4.66a0.4,0.4,0,0,1-.4-0.4V8.367a0.4,0.4,0,1,1,.8,0v10.4a0.4,0.4,0,0,1-.4.4h0Zm0.836-5.2H16.737a2.354,2.354,0,0,1,0-4.708h3.612a0.4,0.4,0,0,1,0,.8H16.737a1.554,1.554,0,0,0,0,3.108h1.669a0.4,0.4,0,0,1,0,.8h0Zm0,3.911H14.761a0.4,0.4,0,0,1,0-.8h3.645a1.556,1.556,0,0,0,0-3.111H17.293a0.4,0.4,0,0,1,0-.8h1.113a2.355,2.355,0,0,1,0,4.71h0Zm-18,13.6a0.4,0.4,0,0,1-.244-0.72L14.2,20.075a0.4,0.4,0,0,1,.549.063l2.881,3.486L35.281,10.471a0.394,0.394,0,0,1,.558.08,0.4,0.4,0,0,1-.081.56L17.807,24.493a0.4,0.4,0,0,1-.546-0.067L14.38,20.945,0.649,31.4a0.412,0.412,0,0,1-.24.082h0ZM10.522,9.407a0.426,0.426,0,0,1-.2-0.054l-3.458-2A0.406,0.406,0,0,1,6.677,7.1a0.4,0.4,0,0,1,.05-0.31A12.812,12.812,0,0,1,16.75.8a0.417,0.417,0,0,1,.3.109,0.4,0.4,0,0,1,.128.293v4a0.405,0.405,0,0,1-.365.4,7.933,7.933,0,0,0-5.953,3.616,0.393,0.393,0,0,1-.334.186h0ZM7.628,6.868l2.773,1.6a8.724,8.724,0,0,1,5.971-3.624V1.638a12.01,12.01,0,0,0-8.744,5.23h0Zm9.143-1.662h0ZM8.639,22.552a0.39,0.39,0,0,1-.287-0.123,12.746,12.746,0,0,1-2.4-14.18,0.4,0.4,0,0,1,.561-0.178l3.47,2.008a0.4,0.4,0,0,1,.172.5,7.977,7.977,0,0,0,1.977,8.849,0.4,0.4,0,0,1,.128.317,0.414,0.414,0,0,1-.159.3L8.878,22.47a0.391,0.391,0,0,1-.24.082h0ZM6.5,8.987a11.944,11.944,0,0,0,2.186,12.63l2.564-1.935a8.847,8.847,0,0,1-2.476-6.115A8.729,8.729,0,0,1,9.29,10.6Zm18.113,7.756a0.4,0.4,0,0,1-.374-0.547,7.19,7.19,0,0,0-5.91-9.787,0.4,0.4,0,0,1-.359-0.4V0.4A0.4,0.4,0,0,1,18.393,0,13.582,13.582,0,0,1,31,11.773a0.4,0.4,0,0,1-.156.373l-5.988,4.52a0.408,0.408,0,0,1-.239.078h0ZM18.767,5.658a7.98,7.98,0,0,1,6.771,7.913,7.886,7.886,0,0,1-.188,1.714l4.821-3.637A12.785,12.785,0,0,0,18.767.837V5.658ZM6.792,40H2a0.4,0.4,0,0,1-.4-0.4V32.526a0.394,0.394,0,0,1,.159-0.317l4.79-3.649a0.4,0.4,0,0,1,.639.319V39.6a0.4,0.4,0,0,1-.4.4h0ZM2.4,39.2H6.393v-9.51L2.4,32.722V39.2ZM15.574,40h-4.79a0.4,0.4,0,0,1-.4-0.4V25.843a0.4,0.4,0,0,1,.159-0.319l3.468-2.647a0.4,0.4,0,0,1,.549.061l1.322,1.6a0.393,0.393,0,0,1,.09.254V39.6a0.4,0.4,0,0,1-.4.4h0Zm-4.391-.8h3.992V24.94L14.19,23.746,11.183,26.04V39.2ZM24.356,40h-4.79a0.4,0.4,0,0,1-.4-0.4V25.343a0.4,0.4,0,0,1,.162-0.318l4.79-3.573a0.4,0.4,0,0,1,.419-0.036,0.4,0.4,0,0,1,.217.357V39.6a0.4,0.4,0,0,1-.4.4h0Zm-4.391-.8h3.992V22.57l-3.992,2.975V39.2ZM33.138,40h-4.79a0.4,0.4,0,0,1-.4-0.4V18.8a0.407,0.407,0,0,1,.162-0.321L32.9,14.9a0.4,0.4,0,0,1,.636.323V39.6a0.4,0.4,0,0,1-.4.4h0Zm-4.391-.8h3.992V16.021L28.747,19V39.2ZM35.3,13.574a0.267,0.267,0,0,1-.05,0,0.4,0.4,0,0,1-.346-0.449l0.258-1.984-1.98-.259a0.4,0.4,0,0,1,.106-0.795L35.664,10.4a0.4,0.4,0,0,1,.346.45L35.7,13.227a0.4,0.4,0,0,1-.4.347h0Z"/>
</svg>
